<svg xmlns="http://www.w3.org/2000/svg" xmlns:xlink="http://www.w3.org/1999/xlink" x="0" y="0" enable-background="new 0 0 52 52" version="1.1" viewBox="0 0 52 52" xml:space="preserve"><g><polyline fill="none" stroke="#000" stroke-miterlimit="10" stroke-width="2" points="29 33 29 3 49 3 49 49 30.749 49"/><line x1="39" x2="39" y1="31" y2="3" fill="none" stroke="#000" stroke-miterlimit="10" stroke-width="2"/><line x1="39" x2="39" y1="33" y2="35" fill="none" stroke="#000" stroke-miterlimit="10" stroke-width="2"/><path fill="none" stroke="#000" stroke-miterlimit="10" stroke-width="2" d="M31.0000019,32.9999924H11.2739277 c-4.2608638,0-7.9813232,3.2153931-8.2565918,7.4674683c-0.3017578,4.6593628,3.3880618,8.5325317,7.982666,8.5325317 c2.637207,0,4.9736328-1.2775269,6.4296875-3.246582c0.7873535-1.0646973,1.9804688-1.753418,3.3046875-1.753418h0.3599854 c1.4093018,0,2.6870117,0.7172852,3.5400391,1.8391724c1.6541748,2.1756592,4.3953857,3.4787598,7.4166279,3.0936279 c3.5898438-0.4575195,6.4897461-3.4046631,6.8961182-7.0005493C39.4937782,37.0967941,35.7252235,32.9999924,31.0000019,32.9999924 z"/><line x1="17" x2="19" y1="37" y2="37" fill="none" stroke="#000" stroke-miterlimit="10" stroke-width="2"/><line x1="22" x2="24" y1="37" y2="37" fill="none" stroke="#000" stroke-miterlimit="10" stroke-width="2"/><line x1="31" x2="31" y1="36" y2="46" fill="none" stroke="#000" stroke-miterlimit="10" stroke-width="2"/><line x1="36" x2="26" y1="41" y2="41" fill="none" stroke="#000" stroke-miterlimit="10" stroke-width="2"/><g><line x1="11" x2="11" y1="37" y2="39" fill="none" stroke="#000" stroke-miterlimit="10" stroke-width="2"/><line x1="11" x2="11" y1="43" y2="45" fill="none" stroke="#000" stroke-miterlimit="10" stroke-width="2"/></g><g><line x1="15" x2="13" y1="41" y2="41" fill="none" stroke="#000" stroke-miterlimit="10" stroke-width="2"/><line x1="9" x2="7" y1="41" y2="41" fill="none" stroke="#000" stroke-miterlimit="10" stroke-width="2"/></g></g></svg>