<svg xmlns="http://www.w3.org/2000/svg" xmlns:xlink="http://www.w3.org/1999/xlink" width="300" height="300" x="0" y="0" style="enable-background:new 0 0 128 128" fill="#000" version="1.1" viewBox="0 0 128 128" xml:space="preserve"><style type="text/css">.st0{display:none}.st1{display:inline}.st2,.st3,.st5{fill:none;stroke:#000;stroke-width:.1;stroke-miterlimit:10}.st3,.st5{stroke-width:5}.st5{stroke-linecap:round}</style><g class="st0"><g class="st1"><rect width="128" height="128" class="st2"/><line x1="0" x2="128" y1="124" y2="124" class="st2"/><line x1="0" x2="128" y1="120" y2="120" class="st2"/><line x1="0" x2="128" y1="116" y2="116" class="st2"/><line x1="0" x2="128" y1="112" y2="112" class="st2"/><line x1="0" x2="128" y1="108" y2="108" class="st2"/><line x1="0" x2="128" y1="104" y2="104" class="st2"/><line x1="0" x2="128" y1="100" y2="100" class="st2"/><line x1="0" x2="128" y1="96" y2="96" class="st2"/><line x1="0" x2="128" y1="92" y2="92" class="st2"/><line x1="0" x2="128" y1="88" y2="88" class="st2"/><line x1="0" x2="128" y1="84" y2="84" class="st2"/><line x1="0" x2="128" y1="80" y2="80" class="st2"/><line x1="0" x2="128" y1="76" y2="76" class="st2"/><line x1="0" x2="128" y1="72" y2="72" class="st2"/><line x1="0" x2="128" y1="68" y2="68" class="st2"/><line x1="0" x2="128" y1="64" y2="64" class="st2"/><line x1="0" x2="128" y1="60" y2="60" class="st2"/><line x1="0" x2="128" y1="56" y2="56" class="st2"/><line x1="0" x2="128" y1="52" y2="52" class="st2"/><line x1="0" x2="128" y1="48" y2="48" class="st2"/><line x1="0" x2="128" y1="44" y2="44" class="st2"/><line x1="0" x2="128" y1="40" y2="40" class="st2"/><line x1="0" x2="128" y1="36" y2="36" class="st2"/><line x1="0" x2="128" y1="32" y2="32" class="st2"/><line x1="0" x2="128" y1="28" y2="28" class="st2"/><line x1="0" x2="128" y1="24" y2="24" class="st2"/><line x1="0" x2="128" y1="20" y2="20" class="st2"/><line x1="0" x2="128" y1="16" y2="16" class="st2"/><line x1="0" x2="128" y1="12" y2="12" class="st2"/><line x1="0" x2="128" y1="8" y2="8" class="st2"/><line x1="0" x2="128" y1="4" y2="4" class="st2"/><line x1="124" x2="124" y1="0" y2="128" class="st2"/><line x1="120" x2="120" y1="0" y2="128" class="st2"/><line x1="116" x2="116" y1="0" y2="128" class="st2"/><line x1="112" x2="112" y1="0" y2="128" class="st2"/><line x1="108" x2="108" y1="0" y2="128" class="st2"/><line x1="104" x2="104" y1="0" y2="128" class="st2"/><line x1="100" x2="100" y1="0" y2="128" class="st2"/><line x1="96" x2="96" y1="0" y2="128" class="st2"/><line x1="92" x2="92" y1="0" y2="128" class="st2"/><line x1="88" x2="88" y1="0" y2="128" class="st2"/><line x1="84" x2="84" y1="0" y2="128" class="st2"/><line x1="80" x2="80" y1="0" y2="128" class="st2"/><line x1="76" x2="76" y1="0" y2="128" class="st2"/><line x1="72" x2="72" y1="0" y2="128" class="st2"/><line x1="68" x2="68" y1="0" y2="128" class="st2"/><line x1="64" x2="64" y1="0" y2="128" class="st2"/><line x1="60" x2="60" y1="0" y2="128" class="st2"/><line x1="56" x2="56" y1="0" y2="128" class="st2"/><line x1="52" x2="52" y1="0" y2="128" class="st2"/><line x1="48" x2="48" y1="0" y2="128" class="st2"/><line x1="44" x2="44" y1="0" y2="128" class="st2"/><line x1="40" x2="40" y1="0" y2="128" class="st2"/><line x1="36" x2="36" y1="0" y2="128" class="st2"/><line x1="32" x2="32" y1="0" y2="128" class="st2"/><line x1="28" x2="28" y1="0" y2="128" class="st2"/><line x1="24" x2="24" y1="0" y2="128" class="st2"/><line x1="20" x2="20" y1="0" y2="128" class="st2"/><line x1="16" x2="16" y1="0" y2="128" class="st2"/><line x1="12" x2="12" y1="0" y2="128" class="st2"/><line x1="8" x2="8" y1="0" y2="128" class="st2"/><line x1="4" x2="4" y1="0" y2="128" class="st2"/></g></g><g><g><rect width="120" height="120" x="4" y="4" class="st3"/><rect width="70.2" height="96.1" x="41.1" y="15.9" class="st3"/><line x1="63.8" x2="63.8" y1="17.1" y2="110.5" class="st3"/><line x1="88.7" x2="88.7" y1="17.1" y2="110.5" class="st3"/><circle cx="22.3" cy="28.4" r="4.4" class="st3"/><circle cx="22.3" cy="50.7" r="4.4" class="st3"/><line x1="51.8" x2="51.8" y1="25.1" y2="31.8" class="st5"/><line x1="99.2" x2="99.2" y1="25.1" y2="31.8" class="st5"/><line x1="75.5" x2="75.5" y1="25.1" y2="31.8" class="st5"/></g></g></svg>