<svg xmlns="http://www.w3.org/2000/svg" xmlns:svg="http://www.w3.org/2000/svg" width="300" height="300" x="0" y="0" fill="#000" version="1.1" viewBox="0 0 100 100"><g><path style="color:#000;enable-background:accumulate" fill="#000" stroke="none" marker="none" d="m 4.999985,1025.3622 c 0,4.4319 3.5681,8 8,8 l 74.00003,0 c 4.4319,0 8,-3.5681 8,-8 l 0,-46.00001 c 0,-4.43195 -3.5681,-8 -8,-8 l -74.00003,0 c -4.4319,0 -8,3.56805 -8,8 l 0,46.00001 z m 8,4 0,-54.00001 70.00003,0 0,54.00001 -70.00003,0 z m 73.00003,-27 c 0,-1.6569 1.3432,-3.00001 3,-3.00001 1.6569,0 3,1.34311 3,3.00001 0,1.6568 -1.3431,3 -3,3 -1.6568,0 -3,-1.3432 -3,-3 z" display="inline" overflow="visible" transform="translate(0,-952.36218)" visibility="visible"/></g></svg>